<svg width="14" height="14" viewBox="0 0 14 14" fill="none" xmlns="http://www.w3.org/2000/svg">
<path d="M4.28954 5.33546L6.99999 8.04593L9.71044 5.33548C9.73734 5.30762 9.76952 5.2854 9.80511 5.27012C9.84069 5.25483 9.87897 5.24678 9.91769 5.24645C9.95642 5.24611 9.99483 5.25349 10.0307 5.26816C10.0665 5.28282 10.0991 5.30448 10.1265 5.33186C10.1539 5.35925 10.1755 5.39181 10.1902 5.42766C10.2048 5.4635 10.2122 5.50191 10.2119 5.54064C10.2115 5.57937 10.2035 5.61764 10.1882 5.65322C10.1729 5.68881 10.1507 5.72099 10.1229 5.7479L7.20619 8.66456C7.17911 8.69165 7.14696 8.71314 7.11158 8.7278C7.0762 8.74245 7.03828 8.75 6.99998 8.75C6.96168 8.75 6.92376 8.74245 6.88837 8.7278C6.85299 8.71314 6.82084 8.69165 6.79377 8.66456L3.8771 5.7479C3.82397 5.69289 3.79457 5.61921 3.79524 5.54274C3.7959 5.46626 3.82658 5.39311 3.88065 5.33903C3.93473 5.28495 4.00789 5.25428 4.08436 5.25362C4.16083 5.25295 4.23451 5.28235 4.28952 5.33548L4.28954 5.33546Z" fill="black"/>
</svg>
